<svg id="Componente_13_1" data-name="Componente 13 – 1" xmlns="http://www.w3.org/2000/svg" width="100%" height="100%" viewBox="0 0 907.13 1467.885">
  <ellipse id="Elipse_18" data-name="Elipse 18" cx="117.61" cy="118.234" rx="117.61" ry="118.234" transform="translate(0 22.686)" fill="#ee7d58" opacity="0.37"/>
  <path id="Trazado_37" data-name="Trazado 37" d="M1811.22,1491.317c14.982-14.778,38.112-12.153,55.011-2.223a80.255,80.255,0,0,1,11.839,8.542l11.075,9c25.99,21.049,52.033,42.929,71.235,70.775,21.844,31,44.52,80.436,87.75,81.289,13.439.27,25.95-4.875,33.64-16.188,5.281-7.411,8.622-16.055,11.671-24.713,20.678-58.118,24.744-120.342,24.147-181.616-.955-46.761,1.533-95.24-6.633-141.457-6.116-35.1-22.132-67.377-31.439-101.671-5.887-22.119-13.678-51.825,4.074-70.514a41.155,41.155,0,0,1,12.171-8.366,39.83,39.83,0,0,1,6.757-2.563l.5.884c-3.389,3.443-7.588,5.608-11.481,8.322-23.8,17.469-10.606,53.871-3.235,77.011,10.81,31.6,26.052,61.994,32.288,95.086,5.537,28.367,6.708,57.349,6.863,86.146-.08,38.192.331,76.3-2.267,114.469-2.718,40.666-9.042,81.293-21.933,120.068-4.715,13.885-9.515,28.593-19.922,39.5-12.767,13.377-33.132,16.055-50.389,11.437-38.236-10.765-57.557-52.89-78.138-83.322-18.358-27.523-43.636-49.51-68.769-70.85l-10.867-9.267a77.229,77.229,0,0,0-11.071-8.423c-11.6-7.075-26.228-11.022-39.447-6.479a33.957,33.957,0,0,0-11.711,6.965l-1.724-1.847h0Z" transform="translate(-1771.141 -1053.863)" fill="#ee7d58"/>
  <path id="Trazado_38" data-name="Trazado 38" d="M2501.841,1163.934c-1.264,4.7-4.694,9.616-9.886,10.332-5.21.707-10.049-2.355-13.885-5.476a87.96,87.96,0,0,1-10.81-15.392,91.911,91.911,0,0,1-7.619-16.922c-2.572-8.171-5.467-20.952,1.025-27.926a21.725,21.725,0,0,1,6.2-3.986,19.383,19.383,0,0,1,2.439-.977,20.461,20.461,0,0,1,7.774-.225c7.747,1.445,12.7,8.56,16.232,14.981,8.516,16.608,14.014,34.555,22.26,51.176,4.07,8.255,8.538,16.334,13.081,24.346,17.376,29.755,35.058,61.358,47.883,93.3,5.161,12.971,10.92,26.039,14.592,39.743,7.349,29.525,9.93,59.912,14.186,89.809,4.5,31.311,9.634,65.163,13.377,96.526l-1,.186c-4.556-18.031-8.662-36.15-12.635-54.3-3.88-18.2-7.752-36.384-10.832-54.76-3.5-20.674-6.368-41.17-10.354-61.53-.327-1.724-.985-5.034-1.352-6.739-2.7-13.5-7.438-25.981-12.232-39.049a486.547,486.547,0,0,0-21.571-50.844c-10.461-21.831-24.912-45.987-35.655-67.708-8.441-16.687-13.943-34.524-21.195-51.631-3.416-7.615-10.116-18.826-18.853-20.391a9.718,9.718,0,0,0-3.094.115l.172-.044a26.9,26.9,0,0,0-3.88,1.772,12.978,12.978,0,0,0-3.319,2.347,11.54,11.54,0,0,0-2.643,7.4,38.96,38.96,0,0,0,2.077,12.8,127.531,127.531,0,0,0,17.938,35.443c6.324,6.1,13.713,9,19.48.561a18.8,18.8,0,0,0,1.719-3.054l.371.119h0Z" transform="translate(-2131.375 -1049.109)" fill="#ee7d58"/>
  <path id="Trazado_39" data-name="Trazado 39" d="M2780.53,2124.723a54.436,54.436,0,0,0,2.877-15.189,136.6,136.6,0,0,0,.1-14.672c-.332-10.262-1.719-20.974-.977-31.373l.707-.239a43.166,43.166,0,0,1,6.784,10.726c5.206,11.614,6.629,25.575,1.86,37.648-2.174,5.268-5.886,10.88-11.349,13.1h0Z" transform="translate(-2312.084 -1584.944)" fill="#ee7d58"/>
  <path id="Trazado_40" data-name="Trazado 40" d="M2991.464,2044.94c6.735,7.619,10.717,17.271,13.223,27.024a49.843,49.843,0,0,1,1.8,11.9,42.372,42.372,0,0,1-2.607,13.991,71.963,71.963,0,0,1-7.518,17.041c-.7-6.147.23-11.989-.344-18.057-.217-2.881-.526-5.785-.716-8.631-.2-2.789-.2-6.351-.331-9.148-.782-11.424-2.1-22.711-3.509-34.117h0Z" transform="translate(-2429.797 -1574.727)" fill="#ee7d58"/>
  <path id="Trazado_41" data-name="Trazado 41" d="M2714.374,1345.245c4.437-35.779,9.523-71.65,5.612-107.637-2.758-24.523-10.443-47.627-18.517-71.067-4.848-14.508-9.594-29.092-14.853-43.481-7.853-21.765-15.6-43.627-20.873-66.214-3.8-16.577-4.618-36.229,5.648-50.72a31.962,31.962,0,0,1,5.184-5.6,29.626,29.626,0,0,1,10.456-5.692l.42.924a42.333,42.333,0,0,0-4.534,3.354c-22.883,19.273-11.539,65.114-2.669,89.557,6.311,18.1,14.036,35.624,20.877,53.553,2.674,7.062,5.3,14.517,8,21.575,8.75,23.334,18.84,47.419,21.372,72.653a197.573,197.573,0,0,1,.119,35.275c-2.006,25.08-7.636,49.854-15.251,73.732l-.994-.217h0Z" transform="translate(-2246.568 -988.693)" fill="#ee7d58"/>
  <path id="Trazado_42" data-name="Trazado 42" d="M2843.542,1423.247c-3.5-20.324-3.019-41.055-3.845-61.574-.972-23.436-2.444-47.026-1.64-70.51.389-14.513.42-29.11-.345-43.561a199.641,199.641,0,0,0-4.123-34.073c-6.152-28.27-20.837-53.752-35.279-78.633-11.5-20.165-23.886-40.83-34.572-61.406-7.76-15.092-14.919-30.559-20.315-46.668-1.94-6.275-3.876-12.573-6.174-18.716-2.545-6.66-5.246-13.43-9.369-19.246a15.59,15.59,0,0,0-2.634-2.864,3.315,3.315,0,0,0-2.8-.981,33.253,33.253,0,0,0-3.279,1.26c-8.953,3.792-8.56,11.844-6.143,19.86a166.933,166.933,0,0,0,6,16.245,93.7,93.7,0,0,0,7.941,15.18c2.055,2.886,5.069,6.965,8.7,6.952a15.763,15.763,0,0,0,3.933-.862c2.47-.844,4.751-2.766,5.157-5.436l1.017-.031a7,7,0,0,1-1.5,4.565,12.626,12.626,0,0,1-7.089,4.22l-.57.133a7.908,7.908,0,0,1-5.772-.915c-10.5-6.169-18.419-27.409-22-38.793-2.422-7.663-2.93-17.231,4.446-22.481a26.479,26.479,0,0,1,8.163-3.8,7.147,7.147,0,0,1,6.293,1.834c7.305,6.452,12.555,22.954,15.821,32.256,1.171,3.452,2.289,7,3.416,10.465a258.184,258.184,0,0,0,12.975,29.989c21.239,41.864,50.747,79.256,70.842,121.8,7.521,16.254,12.984,33.909,14.937,51.821,2.347,20.669,2.294,41.458,1.644,62.171-.349,8.273-.619,17.925-.791,26.224-.252,11.672-.367,23.383-.464,35.116-.049,23.626-2.815,46.933-.848,70.227l-1.732.225h0Z" transform="translate(-2271.18 -980.942)" fill="#ee7d58"/>
  <path id="Trazado_43" data-name="Trazado 43" d="M2989.914,1525.412c2.7-28.23,5.219-56.487,6.235-84.824.376-12.582.531-25.243-.672-37.736-1-9.643-3.465-19.065-5.8-28.518-15.9-60.257-34.2-119.935-53.752-179.11-2.718-7.919-5.361-16.064-8.671-23.679-3-6.439-6.6-12.736-9.148-19.449-1.666-4.079-2.307-8.759-2.842-12.948-.394-2.762-.88-5.608-1.41-8.361q-1.69-8.306-3.9-16.488c-.747-2.714-1.564-5.4-2.413-8.087a21.157,21.157,0,0,0-3.328-6.965c-3.08-3.889-8.357-5.206-13.107-4.021a16.117,16.117,0,0,0-6.483,3,3.337,3.337,0,0,0-1.136,2.135c-.119,1.242-.252,2.811-.292,3.986.676,16.409,3.571,43.247,23.422,46.659,2.775.5,5.674.769,8.437,1.529l-.146.924c-1.405-.053-2.806-.022-4.225.009a37.264,37.264,0,0,1-8.8-.455,23.75,23.75,0,0,1-11.768-6.982c-7.274-7.76-9.793-18.579-11.194-28.695a107.681,107.681,0,0,1-.981-13.165c.04-1.348.221-2.568.336-3.867a8.642,8.642,0,0,1,2.908-5.842,17.755,17.755,0,0,1,6.576-3.368c6.912-2.369,15.41-.6,19.861,5.506a26.262,26.262,0,0,1,3.831,8.4c1.64,5.489,3.067,11.053,4.344,16.63,1.238,5.6,2.448,11.132,3.871,16.7a93.544,93.544,0,0,0,2.6,9.952,105.419,105.419,0,0,0,6.386,13.006,126.8,126.8,0,0,1,7.676,15.587c4.362,10.589,8.339,21.248,12.228,31.991,9.7,26.763,18.61,53.792,27.25,80.913,10.217,32.743,20.417,65.384,26.874,99.178a117.928,117.928,0,0,1,1.9,17.54c.512,17.28-.972,34.506-2.886,51.582q-3.944,33.994-10.876,67.487l-.924-.146h0Z" transform="translate(-2366.447 -1041.848)" fill="#ee7d58"/>
  <path id="Trazado_44" data-name="Trazado 44" d="M2849.959,1152.366a63.386,63.386,0,0,1-2.391-17.231,56.761,56.761,0,0,1,.92-10.549,39.792,39.792,0,0,1,3.451-10.134,25.984,25.984,0,0,1,6.386-8.825,30.177,30.177,0,0,1,2.97-1.918c.2-.115.844-.521,1.043-.65a8.9,8.9,0,0,0,1.317-1.1c.013,0,.018-.022.013.04a.447.447,0,0,0,.521.49l-.2-.915a.525.525,0,0,1,.646.429,1.38,1.38,0,0,1-.168.672,7.088,7.088,0,0,1-1,1.609c-.981,1.189-2.346,2.3-3.3,3.354-2.368,2.811-3.84,6.479-5.024,9.961a95.839,95.839,0,0,0-3.469,17.739,140.287,140.287,0,0,0-.787,16.882l-.924.15h0Z" transform="translate(-2349.494 -1048.252)" fill="#ee7d58"/>
  <path id="Trazado_45" data-name="Trazado 45" d="M3423.1,2748.154c-6.125-7.769-11.512-16.046-17.173-24.143-3.969-5.811-8.521-12.476-12.449-18.4-44.419-68.353-87.958-137.622-122.5-211.618-4.07-9.108-7.977-18.327-11.3-27.749-2.979-7.911-6.134-20.43-8.3-28.814-15.021-57.31-29.6-114.76-42.023-172.711-10.235-48.44-19.564-97.225-23.975-146.606-.839-9.948-1.427-19.922-1.582-29.923-.933-51.715-.234-111.106-3.3-162.418-.654-7.142-1.1-14.2-3.054-21.031-4.649-14.6-14.928-27.024-25.742-37.657l-1.3-1.224c-.442-.4-.915-.844-1.321-1.193a3.609,3.609,0,0,1,4.7-5.48c1.953,1.648,3.854,3.421,5.679,5.184,10.894,10.774,20.885,23.157,25.822,37.922,2.312,7.358,2.961,15.207,3.752,22.751,3.956,51.074,3.77,111.362,5.308,162.953.234,9.727.9,19.454,1.8,29.154,4.826,48.846,14.442,97.123,24.554,145.148,13.324,62.617,28.77,124.832,43.813,187.069a228.384,228.384,0,0,0,9.033,27.519c23.944,59.245,56.691,114.5,89.1,169.511,14.911,25.071,30.992,50.831,46.186,75.751l7.738,12.608c2.594,4.194,5.188,8.388,7.566,12.728a.609.609,0,0,1-1.008.676h0Z" transform="translate(-2517.072 -1470.596)" fill="#ee7d58"/>
  <path id="Trazado_46" data-name="Trazado 46" d="M2382.192,2998.27a202.125,202.125,0,0,1-9.223-18.11c-34.448-73.475-74.96-155.042-109.492-228.765-27.13-65.167-55.692-130.3-91.957-190.927-2.811-4.733-6.32-10.23-9.214-14.937-4.791-7.486-10.257-15.781-15.154-23.109-36.636-54.786-79.2-105.515-115.41-160.686-7.464-11.415-14.42-23.25-20.885-35.24s-12.639-24.014-18.875-36.017a538.462,538.462,0,0,0-42.227-68.4c-20.254-28.341-44.295-54.446-65.087-82.725-12.882-18.605-21.77-39.7-31.514-59.992-3.9-8.114-8.251-16.621-12.887-24.337-7.946-13.572-18.7-25.65-27.815-39-2.546-3.655-6.16-8.9-8.516-12.874a70.656,70.656,0,0,1-8.507-19.4,21.958,21.958,0,0,1-.729-8.772,9.922,9.922,0,0,1,3.5-6.28,10.269,10.269,0,0,1,2.3-1.365,21.526,21.526,0,0,1,6.39-1.719c11.229-1.065,21.977,4.742,29.547,12.6a94.485,94.485,0,0,1,9.661,12.361c1.109,1.631,2.369,3.955,3.323,5.71.327.7,1.335,2.873,1.675,3.615.495,1.3.99,2.607,1.41,3.73,3.513,10.531,3.412,21.65,1.533,32.389-.619,3.429-1.118,6.832-3.023,9.851l-.994-.212c-.583-3.5.164-6.708.5-10.12.349-3.266.526-6.651.561-9.917.08-9.842-1.993-19.511-6.9-27.97a74.87,74.87,0,0,0-10.266-13.669c-6.289-7.2-16.709-13.289-26.326-12.29a15.16,15.16,0,0,0-4.578,1.264c-3.054,1.224-2.32,5.365-1.741,8.123,2.868,12.2,10.951,22.927,18.177,33.1,8.33,11.649,18.1,22.578,25.711,34.828l1.383,2.183c.849,1.286,3.107,5.237,3.947,6.651,4.989,8.75,9.634,18.221,14.013,27.3,8.68,17.991,17.169,36.331,29.234,52.342,29.105,37.2,61.654,72.339,86.366,113.068,21.628,34.312,37.3,72.07,59.983,105.692,5.118,7.632,10.4,15.331,15.719,22.844,29.707,41.86,63.382,81.651,94.14,122.737,11.062,14.946,21.955,30.657,31.762,46.464,33.476,53.447,57.65,111.729,84.051,168.738,8.326,17.125,17.885,37.639,25.305,55.259,29.446,67.717,57.769,137.842,85.133,206.465a197.228,197.228,0,0,1,6.925,19.114l-.933.4h0Z" transform="translate(-1761.813 -1530.385)" fill="#ee7d58"/>
</svg>
