<svg xmlns="http://www.w3.org/2000/svg" width="100%" height="100%" viewBox="0 0 319.545 362.403">
  <g id="AKK7b7" transform="translate(5.235 5.304)">
    <g id="Grupo_21" data-name="Grupo 21" transform="translate(0 0)">
      <path id="Trazado_111" data-name="Trazado 111" d="M-1143.529,2186.771c-5.953-1.733-12.177-2.848-17.794-5.338-10.546-4.67-18.244-12.488-20.712-24.1-2.9-13.642,2.5-24.575,13.444-32.294,17-11.992,35.329-12.569,54.142-4.255.885.391,1.736.854,3.051,1.51v-3.465c0-38.87.086-77.742-.084-116.611-.028-6.219,2.253-9.807,8.023-12.254q60.4-25.619,120.594-51.735c8.164-3.56,14.448,1.7,14.406,9.405q-.383,73.324-.043,146.654c.071,15.044-6.7,25.487-19.365,32.609-17.889,10.059-42.908,7.886-57.869-4.877-16.942-14.454-16.13-37.933,2.165-50.632,17.1-11.867,35.381-12.464,54.178-4.118.877.389,1.728.833,2.816,1.362v-73.371c-1.121.412-2.2.751-3.229,1.195q-50.49,21.639-101,43.234c-2.228.949-2.8,2.083-2.793,4.374q.113,51.314.052,102.629c0,18.2-8.348,30.349-25.533,36.571-4.423,1.6-9.152,2.359-13.74,3.5Z" transform="translate(1277.534 -1834.907)" fill="none" stroke="#fff" stroke-width="10.47"/>
      <path id="Trazado_112" data-name="Trazado 112" d="M-1226.9,2046.079c1.512-5.448,3.342-10.731,7.052-15.174,7.773-9.312,17.971-14.054,29.733-15.771a54.263,54.263,0,0,1,34.618,6.376v-119.5c0-.795.028-1.588,0-2.381-.165-4.294,1.5-7.545,5.511-9.315,3.744-1.653,7.246-.709,10.683,2.866,12.258,12.74,25.182,25.234,34.833,40.053,5.71,8.765,13.223,18.639,17.739,28.076,2.78,5.807,4.337,12.316,5.68,18.673,2.251,10.662-.243,20.817-5.644,30.007a159.741,159.741,0,0,1-13.268,18.555c-3.648,4.55-9.244,4.795-13.135,1.3-3.94-3.545-3.8-8.944.148-13.483,2.529-2.913,4.877-5.992,7.188-9.081,8.581-11.472,9.356-23.659,3.807-36.73-6.378-15.022-19.227-28.069-29.148-40.861-1.936-2.5-3.97-4.915-6.537-8.082v3.834c0,40.262-.243,80.526.112,120.783.155,17.345-8.007,28.833-23.245,35.185-19.156,7.987-37.647,6.159-54.275-6.971a30.8,30.8,0,0,1-11.349-19,4.426,4.426,0,0,0-.5-1.033Z" transform="translate(1226.902 -1889.527)" fill="none" stroke="#fff" stroke-width="10.47"/>
    </g>
  </g>
</svg>
