<svg xmlns="http://www.w3.org/2000/svg" width="100%" height="100%" viewBox="0 0 237.604 369.108">
  <g id="Grupo_65" data-name="Grupo 65" transform="translate(5.405 5.405)">
    <path id="Trazado_267" data-name="Trazado 267" d="M728.164,1174.465c.3-20.624-7.137-43.853-18.467-62.069-20.274-32.594-57.484-53.629-95.885-53.629A112.431,112.431,0,0,0,501.379,1171.2c0,19.47,5.853,38.486,13.924,56.039,8.293,18.043,16.073,36.314,24.334,54.416,4.984,10.919,10.191,21.737,15.789,32.355.134.252.264.5.4.755H673.2c2.685-6.245,31.121-60.139,35.459-70.884C717.729,1221.411,727.8,1199.178,728.164,1174.465Z" transform="translate(-501.379 -1058.767)" fill="rgba(0,0,0,0)" stroke="#fff" stroke-width="10.81"/>
    <rect id="Rectángulo_54" data-name="Rectángulo 54" width="123.306" height="58.797" rx="29.399" transform="translate(52.276 272.256)" fill="rgba(0,0,0,0)" stroke="#fff" stroke-width="10.81"/>
    <rect id="Rectángulo_55" data-name="Rectángulo 55" width="68.787" height="19.007" rx="9.503" transform="translate(80.072 344.696)" fill="#fff"/>
  </g>
</svg>