<svg xmlns="http://www.w3.org/2000/svg" width="100%" height="100%" viewBox="0 0 252.658 376.488">
  <g id="Grupo_198" data-name="Grupo 198" transform="translate(110.762 -1887.888)">
    <path id="Trazado_268" data-name="Trazado 268" d="M-39.089,1909.211l-65.863,326.572a19.7,19.7,0,0,0,19.311,23.594h202.13a19.7,19.7,0,0,0,19.265-23.82L65.81,1908.469a19.7,19.7,0,0,0-19.418-15.58l-66.323.519A19.7,19.7,0,0,0-39.089,1909.211Z" transform="translate(0.638 0)" fill="none" stroke="#fff" stroke-width="10"/>
    <path id="Trazado_269" data-name="Trazado 269" d="M-97.79,2016.833s95.2-98.38,200.854,0" transform="translate(12.289 123.669)" fill="none" stroke="#fff" stroke-width="10"/>
    <line id="Línea_106" data-name="Línea 106" y2="175.749" transform="translate(14.413 1921.201)" fill="none" stroke="#fff" stroke-width="10"/>
    <line id="Línea_107" data-name="Línea 107" x2="65.586" transform="translate(-19.404 2065.182)" fill="none" stroke="#fff" stroke-width="10"/>
    <line id="Línea_108" data-name="Línea 108" x2="65.586" transform="translate(-19.404 1994.472)" fill="none" stroke="#fff" stroke-width="10"/>
    <line id="Línea_109" data-name="Línea 109" x2="65.586" transform="translate(-19.404 1921.201)" fill="none" stroke="#fff" stroke-width="10"/>
    <line id="Línea_110" data-name="Línea 110" x2="45.09" transform="translate(-9.669 1957.58)" fill="none" stroke="#fff" stroke-width="10"/>
    <line id="Línea_111" data-name="Línea 111" x2="45.09" transform="translate(-9.669 2031.364)" fill="none" stroke="#fff" stroke-width="10"/>
    <line id="Línea_112" data-name="Línea 112" x2="85.269" y2="134.098" transform="translate(-70.343 1961.826)" fill="none" stroke="#fff" stroke-width="10"/>
    <path id="Trazado_270" data-name="Trazado 270" d="M-91.826,1920.012" transform="translate(21.483 41.815)" fill="none" stroke="#fff" stroke-width="10"/>
    <line id="Línea_113" data-name="Línea 113" x2="9.747" y2="15.329" transform="translate(-104.973 1907.366)" fill="none" stroke="#fff" stroke-width="10"/>
    <circle id="Elipse_83" data-name="Elipse 83" cx="23.057" cy="23.057" r="23.057" transform="translate(-105.762 1918.913)" fill="none" stroke="#fff" stroke-width="10"/>
  </g>
</svg>